<?xml version="1.0" encoding="UTF-8" standalone="no"?>
<!-- Created with Inkscape (http://www.inkscape.org/) -->

<svg
   xmlns:dc="http://purl.org/dc/elements/1.1/"
   xmlns:cc="http://creativecommons.org/ns#"
   xmlns:rdf="http://www.w3.org/1999/02/22-rdf-syntax-ns#"
   xmlns:svg="http://www.w3.org/2000/svg"
   xmlns="http://www.w3.org/2000/svg"
   xmlns:sodipodi="http://sodipodi.sourceforge.net/DTD/sodipodi-0.dtd"
   xmlns:inkscape="http://www.inkscape.org/namespaces/inkscape"
   width="109.92419mm"
   height="95.196716mm"
   viewBox="0 0 109.92419 95.196718"
   version="1.1"
   id="svg8"
   inkscape:version="0.92.3 (2405546, 2018-03-11)"
   sodipodi:docname="drawing_art_7.svg"
   inkscape:export-filename="/tmp/drawing_art_2.svg.png"
   inkscape:export-xdpi="96"
   inkscape:export-ydpi="96">
  <defs
     id="defs2" />
  <sodipodi:namedview
     id="base"
     pagecolor="#ffffff"
     bordercolor="#666666"
     borderopacity="1.0"
     inkscape:pageopacity="0"
     inkscape:pageshadow="2"
     inkscape:zoom="1.979899"
     inkscape:cx="171.36669"
     inkscape:cy="190.73446"
     inkscape:document-units="mm"
     inkscape:current-layer="layer5"
     showgrid="true"
     inkscape:window-width="1920"
     inkscape:window-height="1015"
     inkscape:window-x="0"
     inkscape:window-y="0"
     inkscape:window-maximized="1">
    <inkscape:grid
       type="xygrid"
       id="grid11022"
       originx="-12.604345"
       originy="-171.97917" />
  </sodipodi:namedview>
  <metadata
     id="metadata5">
    <rdf:RDF>
      <cc:Work
         rdf:about="">
        <dc:format>image/svg+xml</dc:format>
        <dc:type
           rdf:resource="http://purl.org/dc/dcmitype/StillImage" />
        <dc:title />
      </cc:Work>
    </rdf:RDF>
  </metadata>
  <g
     inkscape:label="Layer 1"
     inkscape:groupmode="layer"
     id="layer1"
     transform="translate(-12.604345,-29.824106)"
     style="display:inline" />
  <g
     inkscape:groupmode="layer"
     id="layer2"
     inkscape:label="Layer 2"
     transform="translate(-12.604345,-29.824106)"
     style="display:inline" />
  <g
     inkscape:groupmode="layer"
     id="layer3"
     inkscape:label="Layer 3"
     transform="translate(-12.604345,-29.824106)"
     style="display:inline">
    <path
       style="display:inline;fill:#00a0b2;fill-opacity:1;stroke:#000000;stroke-width:0;stroke-linejoin:round;stroke-miterlimit:4;stroke-dasharray:none;stroke-dashoffset:0;stroke-opacity:1"
       d="M 103.86523 0 L 0 179.89844 L 103.86523 359.79883 L 311.5957 359.79883 L 415.46094 179.89844 L 311.5957 0 L 103.86523 0 z M 126.84375 39.798828 L 288.61719 39.798828 C 315.57961 86.499128 342.54144 133.19814 369.50391 179.89844 C 342.54147 226.59873 315.57961 273.29967 288.61719 320 C 234.69233 319.99996 180.7686 320 126.84375 320 C 99.881371 273.29967 72.919527 226.59873 45.957031 179.89844 C 72.919523 133.19814 99.881371 86.499139 126.84375 39.798828 z "
       transform="matrix(0.26458333,0,0,0.26458333,12.604345,29.824106)"
       id="path15296" />
    <path
       style="display:inline;fill:#00984b;fill-opacity:1;stroke:#000000;stroke-width:0;stroke-linejoin:round;stroke-miterlimit:4;stroke-dasharray:none;stroke-dashoffset:0;stroke-opacity:1"
       d="M 129.73047 44.798828 L 51.728516 179.89844 L 129.73047 315 L 285.73047 315 L 363.73242 179.89844 L 285.73047 44.798828 L 129.73047 44.798828 z M 152.82422 84.798828 L 262.63672 84.798828 C 280.93891 116.49916 299.24075 148.1981 317.54297 179.89844 C 299.24077 211.59876 280.93891 243.29967 262.63672 275 L 152.82422 275 C 134.52206 243.29967 116.22021 211.59876 97.917969 179.89844 C 116.2202 148.1981 134.52206 116.49917 152.82422 84.798828 z "
       transform="matrix(0.26458333,0,0,0.26458333,12.604345,29.824106)"
       id="path853" />
    <path
       style="display:inline;fill:#cbcb00;fill-opacity:1;stroke:#000000;stroke-width:0;stroke-linejoin:round;stroke-miterlimit:4;stroke-dasharray:none;stroke-dashoffset:0;stroke-opacity:1"
       d="M 155.71094 89.798828 L 103.68945 179.89844 L 155.71094 270 L 259.75 270 L 311.77148 179.89844 L 259.75 89.798828 L 155.71094 89.798828 z M 178.80469 129.79883 L 236.65625 129.79883 C 246.29819 146.49916 255.94007 163.1981 265.58203 179.89844 C 255.94009 196.59876 246.29819 213.29967 236.65625 230 L 178.80469 230 C 169.16276 213.29967 159.52087 196.59876 149.87891 179.89844 C 159.52087 163.1981 169.16276 146.49917 178.80469 129.79883 z "
       transform="matrix(0.26458333,0,0,0.26458333,12.604345,29.824106)"
       id="path860" />
  </g>
  <g
     inkscape:groupmode="layer"
     id="layer5"
     inkscape:label="Layer 4"
     transform="translate(8.169994,-6.354506)"
     style="display:inline">
    <g
       id="g28"
       style="fill:#d88300;fill-opacity:1;stroke:none;stroke-opacity:1;stroke-width:0.3;stroke-miterlimit:4;stroke-dasharray:none">
      <circle
         style="display:inline;stroke-width:0.3;fill:#d88300;fill-opacity:1;stroke:none;stroke-opacity:1;stroke-miterlimit:4;stroke-dasharray:none"
         r="1.3229166"
         cy="77.395828"
         cx="67.46875"
         id="path23"
         transform="translate(-20.774339,-23.4696)" />
      <rect
         transform="matrix(0.8700515,0.49296083,-0.50707236,0.86190349,0,0)"
         y="22.584919"
         x="67.538383"
         height="2.6289492"
         width="47.76836"
         id="rect14730"
         style="display:inline;fill:#d88300;fill-opacity:1;stroke:none;stroke-width:0.30001992;stroke-linecap:butt;stroke-linejoin:round;stroke-miterlimit:4;stroke-dasharray:none;stroke-dashoffset:0;stroke-opacity:1" />
    </g>
  </g>
</svg>
